<svg width="32" height="32" viewBox="0 0 32 32" fill="none" xmlns="http://www.w3.org/2000/svg">
<g clip-path="url(#clip0_211_21)">
<path d="M28.5714 1.14288H3.42857C2.82236 1.14288 2.24098 1.3837 1.81232 1.81235C1.38367 2.24101 1.14285 2.82239 1.14285 3.4286V22.8572C1.14285 23.4634 1.38367 24.0448 1.81232 24.4734C2.24098 24.9021 2.82236 25.1429 3.42857 25.1429H8V30.8572L15.1314 25.1429H28.5714C29.1776 25.1429 29.759 24.9021 30.1877 24.4734C30.6163 24.0448 30.8571 23.4634 30.8571 22.8572V3.4286C30.8571 2.82239 30.6163 2.24101 30.1877 1.81235C29.759 1.3837 29.1776 1.14288 28.5714 1.14288Z" stroke="#1E5FF8" stroke-width="2.28571" stroke-linecap="round" stroke-linejoin="round"/>
<path d="M12.5714 10.2857C12.5714 9.60758 12.7725 8.9447 13.1493 8.38088C13.526 7.81705 14.0615 7.3776 14.688 7.1181C15.3144 6.8586 16.0038 6.79071 16.6689 6.923C17.334 7.05529 17.9449 7.38183 18.4244 7.86132C18.9039 8.34082 19.2304 8.95173 19.3627 9.61681C19.495 10.2819 19.4271 10.9713 19.1676 11.5977C18.9081 12.2242 18.4687 12.7597 17.9048 13.1364C17.341 13.5132 16.6781 13.7143 16 13.7143V14.8571" stroke="#1E5FF8" stroke-width="2.28571" stroke-linecap="round" stroke-linejoin="round"/>
<path d="M16 18.2857C15.6609 18.2857 15.3295 18.3862 15.0476 18.5746C14.7657 18.763 14.5459 19.0307 14.4162 19.344C14.2864 19.6572 14.2525 20.0019 14.3186 20.3344C14.3848 20.667 14.5481 20.9724 14.7878 21.2122C15.0276 21.4519 15.333 21.6152 15.6656 21.6813C15.9981 21.7475 16.3428 21.7135 16.656 21.5838C16.9693 21.454 17.237 21.2343 17.4254 20.9524C17.6137 20.6705 17.7143 20.339 17.7143 20C17.7084 19.5472 17.5258 19.1146 17.2056 18.7944C16.8854 18.4741 16.4528 18.2916 16 18.2857Z" fill="#1E5FF8"/>
</g>
<defs>
<clipPath id="clip0_211_21">
<rect width="32" height="32" fill="white"/>
</clipPath>
</defs>
</svg>
